<?xml version="1.0" encoding="UTF-8"?>
<!DOCTYPE svg PUBLIC "-//W3C//DTD SVG 1.1//EN" "http://www.w3.org/Graphics/SVG/1.1/DTD/svg11.dtd">
<!-- Creator: CorelDRAW X6 -->
<svg xmlns="http://www.w3.org/2000/svg" xml:space="preserve" width="50mm" height="50mm" version="1.1" style="shape-rendering:geometricPrecision; text-rendering:geometricPrecision; image-rendering:optimizeQuality; fill-rule:evenodd; clip-rule:evenodd"
viewBox="0 0 5000 5000"
 xmlns:xlink="http://www.w3.org/1999/xlink">
 <defs>
  <style type="text/css">
   <![CDATA[
    .fil0 {fill:#636363}
   ]]>
  </style>
 </defs>
 <g id="Слой_x0020_1">
  <metadata id="CorelCorpID_0Corel-Layer"/>
  <g id="_298272064">
   <path class="fil0" d="M1544 2490c15,31 99,120 126,152 291,346 614,703 911,1051 85,100 169,191 257,297 85,101 177,187 186,382 15,324 -270,584 -596,533 -168,-26 -253,-109 -342,-211l-654 -753c-215,-256 -444,-500 -653,-753 -192,-232 -437,-422 -437,-697 0,-198 89,-288 170,-390 216,-270 555,-623 782,-901 82,-101 173,-196 258,-297 84,-100 184,-204 262,-302l263 -302c86,-98 169,-190 343,-221 330,-59 609,200 607,512 -2,192 -92,295 -178,391l-782 902c-34,38 -506,574 -522,608z"/>
   <path class="fil0" d="M3308 2490c17,36 95,112 126,151 187,231 469,524 649,748l262 302c87,103 172,195 258,297 83,99 178,192 186,383 13,321 -265,583 -596,533 -161,-25 -267,-119 -344,-211 -244,-294 -545,-615 -787,-907 -197,-238 -457,-514 -649,-748 -142,-174 -308,-295 -308,-547 0,-198 86,-284 170,-388 222,-274 558,-629 782,-902 134,-163 398,-443 520,-599 84,-107 178,-198 262,-303 362,-449 954,-181 950,290 -2,190 -87,288 -178,393 -89,102 -172,198 -263,302 -94,109 -163,185 -258,297 -89,104 -165,188 -262,303 -39,45 -506,574 -522,608z"/>
  </g>
 </g>
</svg>
