<?xml version="1.0" encoding="UTF-8"?>
<!DOCTYPE svg PUBLIC "-//W3C//DTD SVG 1.1//EN" "http://www.w3.org/Graphics/SVG/1.1/DTD/svg11.dtd">
<!-- Creator: CorelDRAW X6 -->
<svg xmlns="http://www.w3.org/2000/svg" xml:space="preserve" width="75mm" height="75mm" version="1.1" style="shape-rendering:geometricPrecision; text-rendering:geometricPrecision; image-rendering:optimizeQuality; fill-rule:evenodd; clip-rule:evenodd"
viewBox="0 0 7500 7500"
 xmlns:xlink="http://www.w3.org/1999/xlink">
 <defs>
  <style type="text/css">
   <![CDATA[
    .fil0 {fill:black}
    .fil1 {fill:#323332}
   ]]>
  </style>
 </defs>
 <g id="Слой_x0020_1">
  <metadata id="CorelCorpID_0Corel-Layer"/>
  <g id="_362242792">
   <path class="fil0" d="M5005 1910c0,54 3,106 17,158 10,37 12,80 14,121 6,87 30,137 34,229 4,83 28,143 34,228 3,44 14,64 20,106 32,205 -18,106 -27,183 -2,17 6,65 7,92 3,86 -19,319 28,378l63 88c25,43 36,58 51,110 12,41 5,45 40,63 29,16 39,17 52,48 10,25 10,67 10,100 0,44 -11,382 -18,397 -62,131 -158,247 -259,350 -52,53 -118,87 -173,141 -28,28 -59,38 -73,76 -18,51 -29,68 -32,128 -2,37 -10,55 -7,90 3,33 7,54 7,96 0,73 5,140 -4,214 -33,22 -38,40 -77,51l-201 63c-42,12 -50,24 -101,35 -37,8 6,-4 -18,6l-65 34c-40,15 -64,29 -106,33 -66,6 -148,83 -203,66 -44,-14 -43,-78 -93,-84 -21,21 -34,64 -38,108 -5,65 -32,64 -32,113 68,24 128,-2 123,84 -50,4 -101,9 -63,101 60,-4 8,-16 60,-34 22,50 -24,73 -46,113 -37,68 -17,402 -42,491 -45,2 -50,-29 -84,-51 -30,-20 -74,-40 -114,-43 -71,-5 -189,33 -227,76 -70,81 -65,95 -81,213 -16,114 -12,252 -15,368 -60,-22 -47,-153 -79,-191 -50,-60 -124,-82 -208,-74 -126,12 -204,60 -254,164 -5,10 -17,37 -19,46 -11,49 8,32 -15,65 -54,-33 -41,-218 -206,-277 -45,-16 -106,-12 -151,-5 -55,10 -68,28 -98,62 -63,72 -42,-21 -213,-73 -62,-19 -258,-16 -320,6 -192,69 -92,113 43,196l281 134c124,28 122,8 252,39 22,5 25,8 55,13 87,15 128,54 287,66l360 56c218,59 191,14 386,14l288 0c88,0 134,19 207,-7 116,-41 286,35 427,4 39,-9 24,-21 78,-31l48 -13c27,-9 21,-7 52,-6 40,57 11,92 35,137 32,0 39,-4 49,-31 8,-22 7,-55 9,-82 25,-8 28,-20 51,-34 59,-36 175,-59 215,-91 41,-32 74,-55 117,-86 39,-27 94,-44 139,-65 50,-23 89,-54 142,-77l24 -10c73,-29 165,-76 220,-138 4,-5 20,-25 24,-27 11,-9 20,-12 31,-20 13,-10 35,-39 48,-53 19,-19 27,-32 51,-49 57,-39 110,-100 170,-135 21,-13 42,-25 62,-40 56,-43 115,-86 166,-139 8,-9 16,-16 24,-27 62,-79 205,-205 277,-281 33,-34 54,-77 94,-108 60,-47 146,-153 189,-218 41,-61 85,-128 114,-192l68 -135c79,-138 123,-280 182,-428l52 -151c33,-73 43,-159 72,-232 28,-69 39,-180 49,-256 3,-20 2,-26 8,-44 24,-71 30,-155 4,-218 -35,-84 5,-102 6,-176 1,-79 -3,-123 -12,-194 -14,-113 -13,-303 -17,-425 -1,-61 -5,-16 -13,-68 -13,-87 -9,-168 -30,-250 -27,-103 -59,-184 -80,-290 -11,-53 -24,-99 -36,-150 -18,-77 -15,-160 -50,-228 -29,-57 -53,-136 -84,-195 -15,-28 -13,-56 -56,-130l-55 -129c-34,-112 -140,-259 -201,-354 -26,-41 -283,-312 -312,-329l-114 -74c-18,-15 -29,-30 -47,-46 -21,-17 -32,-27 -50,-43 -19,-16 -36,-25 -52,-41 -21,-22 -18,-28 -44,-50 -24,-20 -28,-24 -48,-45l-102 -85c-36,-29 -78,-45 -117,-69l-109 -76c-21,-14 -34,-23 -55,-38l-112 -66c-19,-11 -40,-29 -58,-33 -48,-9 -167,0 -209,-22 -45,-23 -127,-51 -161,-77l-69 -39c-153,-63 -331,-151 -500,-122 -53,9 -176,9 -225,0l-333 -64c-34,-3 -341,-8 -361,10 -23,22 23,64 37,71l69 26c50,27 105,34 152,60 89,49 173,100 254,161l108 87c156,106 214,184 341,320 11,12 18,16 29,30 18,24 10,22 25,44 26,38 62,59 90,105 0,1 13,20 13,20 30,37 30,-9 91,79 23,33 29,32 52,75 33,65 45,117 98,165 55,49 49,65 69,127 52,161 28,265 28,431z"/>
   <path class="fil0" d="M2812 3722c0,31 2,37 27,46 22,8 42,5 65,21 -5,36 -9,23 -79,83 -35,30 -51,46 -82,78 -51,50 -116,68 -37,207 16,28 46,60 69,91 29,39 56,40 89,71 67,62 -19,125 63,183 23,16 33,11 34,49 -48,46 -100,-10 -101,68 24,11 327,-8 353,-12 41,-6 159,15 321,-8l155 -19c51,6 24,92 47,237 7,45 12,74 19,115 5,30 24,83 43,94l59 -19c105,-99 112,-495 140,-521 17,-8 31,-7 52,-15l102 -43c71,-27 39,14 149,-72 63,-49 186,-156 229,-220 38,-56 65,-145 58,-238 -3,-42 -34,-129 -56,-164 -42,-67 -73,-202 -150,-224 -98,-28 -180,-14 -238,-58 -80,-61 -18,-63 -175,-76 -30,-3 12,4 -16,-2 -14,-3 -21,-2 -26,-20l-6 -48c-1,-110 10,-85 -21,-179 -19,-56 -54,-157 -105,-164 -18,32 -15,98 -17,131 -1,35 2,28 -13,51 -35,54 -11,13 -22,83 -6,39 -26,47 -30,78 -17,131 29,83 -105,121 -175,49 -295,-27 -325,107 -20,89 -71,50 -217,113 -76,33 -88,20 -128,34 -33,12 1,7 -39,18 -43,12 -50,-6 -88,20z"/>
   <path class="fil0" d="M257 3857c-6,40 -13,37 -20,69 -17,70 -15,182 -4,246 29,171 135,231 204,313 22,26 17,19 48,37 72,41 103,57 208,55l558 34c32,4 58,21 116,21l24 -34c28,-37 80,1 163,-17 52,-11 35,-50 36,-98 14,-33 137,-110 177,-136 57,-37 244,-211 247,-287 2,-48 -39,-107 -69,-144 -32,-41 -98,-29 -171,-37 -72,-8 -121,-10 -190,-22 -73,-12 -326,-45 -371,-63l-248 -66 -225 -96c-131,-60 -211,-105 -322,-8 -45,39 -103,138 -132,191 -5,10 -12,24 -18,33 -13,23 -2,5 -11,9z"/>
   <path class="fil0" d="M1928 5313c0,59 -2,180 44,212 85,59 175,-83 295,-60 29,6 31,17 59,35 48,29 162,88 200,23 33,-58 15,-245 -10,-323 -12,-39 -16,-19 -19,-72 -3,-42 -2,-54 -17,-87 -13,-29 -16,-32 -22,-68l-71 -211c-26,-44 -66,-77 -105,-34 -45,51 12,77 -74,112 -126,51 -46,37 -104,83 -64,52 -132,-2 -154,221 -6,63 -24,107 -24,170z"/>
   <path class="fil1" d="M4180 909c-5,-101 -66,-54 -61,-138 22,-15 48,-16 72,-28 2,-68 -42,-67 -158,-149 -30,-21 -39,-23 -85,-19 0,125 146,61 109,167 -17,50 -13,73 17,108 26,29 63,56 106,60z"/>
  </g>
 </g>
</svg>
