<?xml version="1.0" encoding="UTF-8"?>
<!DOCTYPE svg PUBLIC "-//W3C//DTD SVG 1.1//EN" "http://www.w3.org/Graphics/SVG/1.1/DTD/svg11.dtd">
<!-- Creator: CorelDRAW X6 -->
<svg xmlns="http://www.w3.org/2000/svg" xml:space="preserve" width="105mm" height="105mm" version="1.1" style="shape-rendering:geometricPrecision; text-rendering:geometricPrecision; image-rendering:optimizeQuality; fill-rule:evenodd; clip-rule:evenodd"
viewBox="0 0 10500 10500"
 xmlns:xlink="http://www.w3.org/1999/xlink">
 <defs>
  <style type="text/css">
   <![CDATA[
    .fil0 {fill:#3E3E3E}
   ]]>
  </style>
 </defs>
 <g id="Слой_x0020_1">
  <metadata id="CorelCorpID_0Corel-Layer"/>
  <g id="_50811720">
   <path class="fil0" d="M5600 5842l1901 354c-4,-63 -1582,-4430 -1665,-4669 -91,-261 -186,-517 -278,-778 -47,-132 -88,-259 -140,-392 -60,-152 -259,-157 -320,-23 -33,71 -82,324 -104,419 -34,144 -67,282 -103,428l-459 1909c-21,88 41,148 115,110 26,-13 222,-245 253,-283 120,-150 151,18 214,205 45,134 93,260 140,392 93,260 188,516 278,778 90,260 183,529 278,778 82,215 157,388 16,622 -59,98 -103,105 -125,149z"/>
   <path class="fil0" d="M5453 4918l-630 -1769c-23,12 -298,317 -342,370l-336 373c-214,248 -461,510 -678,757 -82,94 -192,203 -270,299l-1083 1202c-89,101 -174,200 -269,300l-675 751c-23,27 -44,47 -66,75l-204 225c-45,51 -90,101 -136,153 -105,120 -248,220 -160,357 88,136 276,52 426,5 413,-131 917,-272 1338,-396l1106 -328c68,-20 179,-32 176,-113 -3,-86 -107,-83 -193,-98 -341,-57 -403,-40 -238,-222 14,-16 23,-22 36,-38l232 -262c192,-225 446,-489 650,-720l542 -604c92,-99 180,-221 290,-280 169,-91 291,-90 483,-38z"/>
   <path class="fil0" d="M3427 6912c36,21 778,150 882,169l2684 501c889,165 1791,328 2677,500 245,48 279,-146 233,-233 -34,-64 -722,-650 -820,-750 -21,-22 -43,-41 -65,-59 -103,-85 -243,-222 -349,-312l-415 -371c-27,-25 -41,-41 -69,-64l-209 -188c-38,-37 -258,-235 -283,-240 -45,-10 -78,12 -93,40 -21,39 -3,73 11,107 23,60 50,126 73,189 104,288 112,232 -617,101 -303,-55 -594,-109 -895,-168 -296,-58 -596,-111 -895,-167 -164,-31 -280,-48 -385,-139 -191,-167 -164,-282 -199,-326 -37,29 -824,922 -950,1053 -24,25 -55,60 -77,88 -15,18 -25,25 -40,42l-199 227z"/>
   <path class="fil0" d="M1271 8126c-143,51 -25,180 8,223 160,205 343,398 531,567l194 170c166,147 459,340 653,457 1749,1052 4093,891 5681,-331 163,-126 245,-197 400,-336 85,-76 484,-499 519,-579 44,-102 -82,-190 -173,-102 -67,64 -124,116 -186,178 -141,143 -451,378 -617,492 -138,95 -301,196 -459,280 -1509,799 -3229,862 -4801,168 -436,-193 -778,-421 -1139,-702 -49,-38 -254,-212 -296,-258 -31,-34 -58,-56 -93,-89 -94,-88 -132,-170 -223,-137z"/>
   <path class="fil0" d="M5802 639c-74,28 -109,157 33,192 739,182 1404,468 1994,916 136,103 276,215 400,328 68,61 119,120 185,179l261 283c1068,1247 1466,2925 1022,4539 -17,63 -81,226 -57,280 19,42 131,129 205,-40 495,-1127 546,-2387 95,-3567 -125,-327 -309,-691 -494,-951 -227,-320 -361,-502 -657,-786 -486,-467 -1112,-875 -1792,-1111 -179,-62 -370,-122 -567,-167 -99,-23 -555,-123 -630,-94z"/>
   <path class="fil0" d="M4659 631c-749,96 -1557,350 -2159,759 -325,221 -362,249 -620,465 -294,246 -613,625 -841,965 -652,969 -936,2205 -715,3418 37,202 82,388 142,577 32,99 154,464 201,520 59,69 212,31 173,-110 -26,-95 -53,-184 -78,-281 -350,-1380 -49,-2843 737,-3981 176,-255 289,-381 481,-598l270 -266c33,-28 62,-59 96,-86 68,-56 128,-109 200,-164 595,-456 1185,-765 1949,-968 62,-16 248,-48 284,-82 31,-30 49,-83 16,-129 -30,-43 -79,-44 -135,-37z"/>
  </g>
 </g>
</svg>
