<?xml version="1.0" encoding="utf-8"?>
<svg xmlns="http://www.w3.org/2000/svg" xmlns:xlink="http://www.w3.org/1999/xlink" style="margin: auto; background: rgb(255, 255, 255); display: block; shape-rendering: auto; animation-play-state: running; animation-delay: 0s;" width="241px" height="241px" viewBox="0 0 100 100" preserveAspectRatio="xMidYMid">
<g transform="translate(50 50)" style="animation-play-state: running; animation-delay: 0s;">
  <g transform="scale(0.56)" style="animation-play-state: running; animation-delay: 0s;">
    <g transform="translate(-50 -50)" style="animation-play-state: running; animation-delay: 0s;">
      <g style="animation-play-state: running; animation-delay: 0s;" transform="rotate(100.997 50 50)">
        <animateTransform attributeName="transform" type="rotate" repeatCount="indefinite" values="0 50 50;360 50 50" keyTimes="0;1" dur="0.6944444444444444s" style="animation-play-state: running; animation-delay: 0s;"></animateTransform>
        <path fill-opacity="1" fill="#ff5335" d="M50 50L50 0A50 50 0 0 1 100 50Z" style="animation-play-state: running; animation-delay: 0s;"></path>
      </g>
      <g style="animation-play-state: running; animation-delay: 0s;" transform="rotate(345.767 50 50)">
        <animateTransform attributeName="transform" type="rotate" repeatCount="indefinite" values="0 50 50;360 50 50" keyTimes="0;1" dur="0.9259259259259258s" style="animation-play-state: running; animation-delay: 0s;"></animateTransform>
        <path fill-opacity="1" fill="#1d0be7" d="M50 50L50 0A50 50 0 0 1 100 50Z" transform="rotate(90 50 50)" style="animation-play-state: running; animation-delay: 0s;"></path>
      </g>
      <g style="animation-play-state: running; animation-delay: 0s;" transform="rotate(230.499 50 50)">
        <animateTransform attributeName="transform" type="rotate" repeatCount="indefinite" values="0 50 50;360 50 50" keyTimes="0;1" dur="1.3888888888888888s" style="animation-play-state: running; animation-delay: 0s;"></animateTransform>
        <path fill-opacity="1" fill="#f3f60c" d="M50 50L50 0A50 50 0 0 1 100 50Z" transform="rotate(180 50 50)" style="animation-play-state: running; animation-delay: 0s;"></path>
      </g>
      <g style="animation-play-state: running; animation-delay: 0s;" transform="rotate(115.243 50 50)">
        <animateTransform attributeName="transform" type="rotate" repeatCount="indefinite" values="0 50 50;360 50 50" keyTimes="0;1" dur="2.7777777777777777s" style="animation-play-state: running; animation-delay: 0s;"></animateTransform>
        <path fill-opacity="1" fill="#3498db" d="M50 50L50 0A50 50 0 0 1 100 50Z" transform="rotate(270 50 50)" style="animation-play-state: running; animation-delay: 0s;"></path>
      </g>
    </g>
  </g>
</g>
<!-- [ldio] generated by https://loading.io/ --></svg>